<svg xmlns="http://www.w3.org/2000/svg" xmlns:xlink="http://www.w3.org/1999/xlink" version="1.1" id="Layer_3" x="0px" y="0px" width="33" height="24" viewBox="0 0 33 24"><path fill="#306FC5" d="M31.636 20.286c0 .946-.767 1.714-1.714 1.714H4.35a1.714 1.714 0 0 1-1.714-1.714V3.714C2.636 2.768 3.403 2 4.35 2h25.572c.947 0 1.714.768 1.714 1.714z"></path><path fill="#202121" d="M3.855 20.286V3.714C3.855 2.768 4.622 2 5.569 2h-1.22c-.946 0-1.713.767-1.713 1.714v16.572c0 .947.767 1.714 1.714 1.714h1.219a1.714 1.714 0 0 1-1.715-1.714" opacity="0.15"></path><path fill="#fff" d="M6.86 10.003h.867L7.294 8.9zM11.469 13.705v.512h1.457v.552H11.47v.59h1.615l.748-.827-.709-.827zM22.851 8.9l-.473 1.103h.906zM15.683 15.675V13.43l-1.024 1.103zM17.613 14.06c-.04-.237-.197-.355-.434-.355h-.826v.709h.866c.236 0 .394-.118.394-.354M20.37 14.336c.079-.04.118-.158.118-.276.04-.158-.04-.237-.118-.276-.079-.04-.197-.04-.315-.04h-.788v.63h.788c.118 0 .236 0 .315-.039"></path><path fill="#fff" d="M26.041 7.876v.473l-.236-.473h-1.851v.473l-.236-.473h-2.521c-.433 0-.788.08-1.103.237v-.237h-1.772v.237c-.197-.158-.433-.237-.748-.237h-6.341l-.434.985-.433-.985H8.358v.473l-.198-.473H6.428L5.64 9.728l-.906 2.008-.017.04h2.051l.014-.04.236-.59h.512l.237.63h2.284v-.473l.197.473h1.142l.197-.473v.473h5.475v-1.024h.078c.08 0 .08 0 .08.118v.866h2.835V11.5c.236.118.59.236 1.063.236H22.3l.236-.63h.551l.237.63h2.284v-.591l.354.591h1.852v-3.86zM12.69 11.185h-.63V9.019l-.04.09v-.001l-.916 2.077h-.58l-.946-2.166v2.166H8.24l-.275-.59h-1.34l-.275.59h-.693l1.165-2.757h.985l1.103 2.639v-2.64h1.043l.019.04h.001l.497 1.082.357.81.012-.04.788-1.891h1.064zm2.717-2.166h-1.536v.512h1.497v.551h-1.497v.552h1.536v.59h-2.205V8.428h2.205zm2.81 1.015.003.003a.757.757 0 0 1 .178.508v.011l.001.006v.004l.002.068v.551h-.591v-.315c0-.158 0-.394-.118-.552a.4.4 0 0 0-.116-.079c-.06-.038-.171-.039-.357-.039h-.71v.985h-.668V8.428h1.496c.355 0 .591 0 .788.118.193.116.31.308.314.613a.78.78 0 0 1-.472.726s.132.027.25.15m1.326 1.151h-.67V8.428h.67zm7.68 0h-.867l-1.26-2.088v1.733l-.004-.004v.36h-.665v-.001h-.67l-.236-.59h-1.379l-.236.63h-.749c-.314 0-.709-.08-.945-.316s-.354-.551-.354-1.063c0-.394.079-.788.354-1.103.197-.236.552-.315.985-.315h.63v.59h-.63c-.236 0-.354.04-.512.158-.118.118-.197.355-.197.63 0 .316.04.512.197.67.118.118.276.158.472.158h.276l.906-2.166h.984l1.104 2.638V8.468h.984l1.142 1.93v-1.93h.67z"></path><path fill="#fff" d="M17.655 9.576a.425.425 0 0 0 .085-.34l-.006-.035-.001-.01a.22.22 0 0 0-.12-.133c-.08-.04-.197-.04-.315-.04h-.788v.63h.788c.118 0 .236 0 .315-.039a.2.2 0 0 0 .032-.023zM29.547 15.123c0-.275-.08-.551-.197-.748v-1.772h-.002v-.118H27.45c-.245 0-.543.236-.543.236v-.236h-1.812c-.276 0-.63.078-.788.236v-.236h-3.23v.236c-.235-.197-.669-.237-.866-.237h-2.126v.237c-.197-.197-.67-.237-.907-.237h-2.362l-.552.591-.512-.59h-3.5440000000000005v3.9779999999999998h3.465l.57-.57.494.57h2.206v-.906h.196c.276 0 .63 0 .906-.119v1.064h1.772v-1.024h.079c.118 0 .118 0 .118.118v.9059999999999999h5.357c.354 0 .709-.08.905-.237v.237h1.694c.354 0 .709-.04.945-.197.363-.218.591-.603.625-1.062l.005-.041-.002-.002q.003-.038.003-.077m-12.407-.236h-.788v1.024h-1.294l-.753-.867-.003.003-.037-.042-.866.906h-2.521v-2.757h2.56l.7.766.146.16.02-.02.828-.906h2.087c.405 0 .859.1 1.03.512q.032.122.033.276c0 .787-.551.945-1.142.945m3.939-.04c.078.119.118.276.118.513v.551h-.67v-.354c0-.158 0-.434-.118-.552-.078-.118-.236-.118-.472-.118h-.71v1.024h-.669v-2.796h1.497c.315 0 .59 0 .788.118a.7.7 0 0 1 .354.63c0 .433-.276.67-.473.748q.295.119.355.237m2.718-1.142H22.26v.512h1.497v.552H22.26v.551h1.537v.591H21.59v-2.796h2.206zm1.654 2.206h-1.26v-.59h1.26c.117 0 .196 0 .275-.08a.3.3 0 0 0 .079-.196.3.3 0 0 0-.079-.197c-.04-.04-.118-.079-.236-.079-.63-.04-1.379 0-1.379-.866 0-.394.237-.828.946-.828h1.3v.67h-1.222c-.118 0-.197 0-.275.04-.079.039-.079.118-.079.196 0 .119.079.158.157.197a.5.5 0 0 0 .237.04h.354c.355 0 .59.078.749.236.118.118.197.315.197.59 0 .591-.355.867-1.024.867m3.387-.276c-.158.158-.434.276-.828.276h-1.26v-.59h1.26c.119 0 .197 0 .276-.08a.3.3 0 0 0 .079-.196.3.3 0 0 0-.079-.197c-.04-.04-.118-.079-.236-.079-.63-.04-1.379 0-1.379-.866 0-.375.215-.713.743-.813q.094-.014.203-.015h1.3v.67h-1.222c-.118 0-.196 0-.275.04a.3.3 0 0 0-.08.196c0 .119.04.158.159.197a.5.5 0 0 0 .236.04h.354c.172 0 .303.02.422.063.109.039.47.2.55.622q.012.065.013.142a.8.8 0 0 1-.236.59"></path></svg>