<svg xmlns="http://www.w3.org/2000/svg" xmlns:xlink="http://www.w3.org/1999/xlink" version="1.1" id="Layer_4" x="0px" y="0px" width="33" height="24" viewBox="0 0 33 24"><path fill="#000" d="M10.516 21.935v-1.392a.826.826 0 0 0-.872-.881.86.86 0 0 0-.78.394.81.81 0 0 0-.733-.394.73.73 0 0 0-.65.329v-.274H7v2.218h.487v-1.23a.52.52 0 0 1 .543-.589c.32 0 .483.21.483.585v1.234h.487v-1.23a.523.523 0 0 1 .543-.589c.33 0 .487.21.487.585v1.234zm2.72-1.109v-1.109h-.483v.27a.84.84 0 0 0-.7-.325 1.166 1.166 0 0 0 0 2.33.84.84 0 0 0 .7-.326v.27h.483zm-1.796 0a.671.671 0 1 1 .405.658.67.67 0 0 1-.405-.658m12.122-1.167c.163-.002.325.029.476.09a1.124 1.124 0 0 1 .629.615c.12.296.12.628 0 .925a1.12 1.12 0 0 1-.629.615 1.32 1.32 0 0 1-.952 0 1.134 1.134 0 0 1-.626-.615c-.12-.297-.12-.629 0-.926a1.13 1.13 0 0 1 .626-.615q.23-.09.476-.089m0 .456a.7.7 0 0 0-.275.052.65.65 0 0 0-.366.371.8.8 0 0 0 0 .577q.05.127.146.224a.7.7 0 0 0 .22.146c.177.07.374.07.55 0a.66.66 0 0 0 .37-.37.8.8 0 0 0 0-.577.67.67 0 0 0-.37-.37.7.7 0 0 0-.275-.053m-7.7.711c-.005-.691-.432-1.164-1.054-1.164a1.166 1.166 0 0 0 .033 2.33c.331.01.655-.1.91-.312l-.237-.357c-.183.147-.41.228-.645.232a.616.616 0 0 1-.664-.543h1.647q.009-.088.01-.186m-1.652-.195a.57.57 0 0 1 .59-.538.55.55 0 0 1 .56.538zm3.684-.348a1.43 1.43 0 0 0-.691-.19c-.265 0-.422.098-.422.26 0 .148.167.19.375.218l.228.033c.482.07.775.273.775.663 0 .422-.372.724-1.012.724a1.6 1.6 0 0 1-.96-.288l.227-.375c.213.157.473.24.738.232.33 0 .505-.098.505-.27 0-.125-.125-.194-.39-.232l-.227-.032c-.496-.07-.765-.293-.765-.654 0-.441.362-.71.923-.71.318-.011.632.07.905.232zm2.32-.125h-.79v1.002c0 .223.08.372.32.372a.9.9 0 0 0 .427-.126l.14.413c-.181.113-.39.173-.604.172-.57 0-.77-.306-.77-.821v-1.012h-.45v-.44h.45v-.674h.487v.673h.79zm1.67-.496q.175 0 .343.06l-.149.455a.8.8 0 0 0-.302-.056c-.315 0-.473.204-.473.57v1.244h-.482v-2.218h.478v.27a.66.66 0 0 1 .584-.325m3.34 1.95a.22.22 0 0 1 .16.065.22.22 0 0 1 .065.156.22.22 0 0 1-.137.203.224.224 0 0 1-.313-.203.22.22 0 0 1 .065-.156.23.23 0 0 1 .16-.065m0 .393a.16.16 0 0 0 .121-.05.17.17 0 0 0 .012-.23.172.172 0 1 0-.133.28m.013-.275a.1.1 0 0 1 .061.017.06.06 0 0 1 .022.048.06.06 0 0 1-.018.042.1.1 0 0 1-.048.02l.067.078h-.052l-.062-.077h-.02v.077h-.044v-.205zm-.05.038v.055h.05a.05.05 0 0 0 .027-.007.02.02 0 0 0 .01-.02.02.02 0 0 0-.01-.021.05.05 0 0 0-.027-.007z"></path><path fill="#7375CF" d="M19.527 2.789h-7.32V15.94h7.32z"></path><path fill="#EB001B" d="M12.673 9.365a8.35 8.35 0 0 1 3.194-6.577 8.365 8.365 0 1 0 0 13.153 8.35 8.35 0 0 1-3.194-6.576"></path><path fill="#00A2E5" d="M28.603 14.548v-.269h.109v-.055h-.277v.055h.109v.27zm.537 0v-.324h-.085l-.097.223-.098-.223h-.085v.324h.06v-.245l.092.211h.062l.091-.211v.245zM29.4 9.365a8.364 8.364 0 0 1-13.533 6.576 8.367 8.367 0 0 0 0-13.153 8.364 8.364 0 0 1 13.534 6.577"></path></svg>