<svg xmlns="http://www.w3.org/2000/svg" xmlns:xlink="http://www.w3.org/1999/xlink" version="1.1" id="Layer_2" x="0px" y="0px" width="33" height="24" viewBox="0 0 33 24"><path fill="#FF5F00" d="M20.05 5.713h-7V18.29h7z"></path><path fill="#EB001B" d="M13.495 12.002a8.05 8.05 0 0 1 3.045-6.289C13.073 2.98 8.028 3.58 5.295 7.069c-2.711 3.466-2.111 8.488 1.378 11.222a7.98 7.98 0 0 0 9.889 0A8 8 0 0 1 13.495 12"></path><path fill="#F79E1B" d="M29.495 12.002c0 4.422-3.577 8-8 8-1.8 0-3.533-.6-4.933-1.711 3.467-2.734 4.067-7.756 1.333-11.245-.4-.489-.844-.955-1.333-1.333 3.467-2.733 8.511-2.133 11.222 1.356a7.92 7.92 0 0 1 1.711 4.933"></path></svg>