<svg xmlns="http://www.w3.org/2000/svg" xmlns:xlink="http://www.w3.org/1999/xlink" version="1.1" id="Layer_2" x="0px" y="0px" width="37" height="24" viewBox="0 0 37 24" fill="none"><path fill="#1434CB" d="M23.772 7.016c-2.27 0-4.298 1.173-4.298 3.338 0 2.484 3.598 2.656 3.598 3.904 0 .525-.605.996-1.637.996-1.465 0-2.56-.657-2.56-.657l-.468 2.185s1.261.555 2.936.555c2.481 0 4.434-1.23 4.434-3.432 0-2.625-3.612-2.792-3.612-3.95 0-.412.496-.862 1.525-.862 1.161 0 2.108.478 2.108.478l.459-2.111s-1.031-.444-2.485-.444m-20.767.16-.055.318s.955.174 1.815.522c1.108.398 1.186.63 1.373 1.35l2.032 7.807h2.725l4.197-9.997h-2.718l-2.697 6.797-1.1-5.762c-.101-.66-.613-1.036-1.238-1.036zm13.18 0-2.132 9.997h2.592l2.124-9.997zm14.456 0c-.625 0-.956.333-1.199.916l-3.797 9.081h2.718l.526-1.514H32.2l.32 1.514h2.398l-2.092-9.997zm.354 2.7.806 3.752h-2.159z"></path></svg>